<svg viewBox="0 0 820 462" xmlns="http://www.w3.org/2000/svg" font-family="IBM Plex Sans, system-ui, -apple-system, Segoe UI, Roboto, sans-serif">
<rect x="20" y="20" width="780" height="422" fill="#f8fafc" stroke="#e2e8f0" stroke-width="1.5" rx="14"/>
<text x="410.0" y="52" text-anchor="middle" font-size="18.5" font-weight="700" fill="#0f172a">Open-weight models. Quality / cost per run</text>
<line x1="168.0" y1="76" x2="168.0" y2="422" stroke="#e2e8f0" stroke-width="1"/>
<text x="168.0" y="70" text-anchor="middle" font-size="11" fill="#475569">0.5</text>
<line x1="279.6" y1="76" x2="279.6" y2="422" stroke="#e2e8f0" stroke-width="1"/>
<text x="279.6" y="70" text-anchor="middle" font-size="11" fill="#475569">0.6</text>
<line x1="391.1" y1="76" x2="391.1" y2="422" stroke="#e2e8f0" stroke-width="1"/>
<text x="391.1" y="70" text-anchor="middle" font-size="11" fill="#475569">0.7</text>
<line x1="502.7" y1="76" x2="502.7" y2="422" stroke="#e2e8f0" stroke-width="1"/>
<text x="502.7" y="70" text-anchor="middle" font-size="11" fill="#475569">0.8</text>
<line x1="614.2" y1="76" x2="614.2" y2="422" stroke="#e2e8f0" stroke-width="1"/>
<text x="614.2" y="70" text-anchor="middle" font-size="11" fill="#475569">0.9</text>
<rect x="168" y="90.0" width="454.0" height="18" rx="4" fill="#7c3aed" opacity="0.88"/>
<line x1="609.8" y1="99.0" x2="652.2" y2="99.0" stroke="#0f172a" stroke-width="1.4"/>
<line x1="609.8" y1="94.0" x2="609.8" y2="104.0" stroke="#0f172a" stroke-width="1.4"/>
<line x1="652.2" y1="94.0" x2="652.2" y2="104.0" stroke="#0f172a" stroke-width="1.4"/>
<text x="156" y="103.0" text-anchor="end" font-size="12.5" font-weight="700" fill="#0f172a">OpenAI mini/nano</text>
<text x="662.2" y="103.0" font-size="11.5" fill="#0f172a">0.907 · $1.18</text>
<rect x="168" y="124.0" width="410.5" height="18" rx="4" fill="#3b82f6" opacity="0.88"/>
<line x1="547.3" y1="133.0" x2="612.0" y2="133.0" stroke="#0f172a" stroke-width="1.4"/>
<line x1="547.3" y1="128.0" x2="547.3" y2="138.0" stroke="#0f172a" stroke-width="1.4"/>
<line x1="612.0" y1="128.0" x2="612.0" y2="138.0" stroke="#0f172a" stroke-width="1.4"/>
<text x="156" y="137.0" text-anchor="end" font-size="12.5" font-weight="600" fill="#0f172a">Kimi K2.7</text>
<text x="622.0" y="137.0" font-size="11.5" fill="#0f172a">0.868 · $2.78</text>
<rect x="168" y="158.0" width="394.9" height="18" rx="4" fill="#3b82f6" opacity="0.88"/>
<line x1="545.1" y1="167.0" x2="593.0" y2="167.0" stroke="#0f172a" stroke-width="1.4"/>
<line x1="545.1" y1="162.0" x2="545.1" y2="172.0" stroke="#0f172a" stroke-width="1.4"/>
<line x1="593.0" y1="162.0" x2="593.0" y2="172.0" stroke="#0f172a" stroke-width="1.4"/>
<text x="156" y="171.0" text-anchor="end" font-size="12.5" font-weight="600" fill="#0f172a">GLM 5.1</text>
<text x="603.0" y="171.0" font-size="11.5" fill="#0f172a">0.854 · $10.8</text>
<rect x="168" y="192.0" width="362.6" height="18" rx="4" fill="#3b82f6" opacity="0.88"/>
<line x1="522.7" y1="201.0" x2="543.9" y2="201.0" stroke="#0f172a" stroke-width="1.4"/>
<line x1="522.7" y1="196.0" x2="522.7" y2="206.0" stroke="#0f172a" stroke-width="1.4"/>
<line x1="543.9" y1="196.0" x2="543.9" y2="206.0" stroke="#0f172a" stroke-width="1.4"/>
<text x="156" y="205.0" text-anchor="end" font-size="12.5" font-weight="600" fill="#0f172a">MiniMax M3</text>
<text x="553.9" y="205.0" font-size="11.5" fill="#0f172a">0.825 · $1.19</text>
<rect x="168" y="226.0" width="275.5" height="18" rx="4" fill="#f59e0b" opacity="0.88"/>
<line x1="433.5" y1="235.0" x2="454.7" y2="235.0" stroke="#0f172a" stroke-width="1.4"/>
<line x1="433.5" y1="230.0" x2="433.5" y2="240.0" stroke="#0f172a" stroke-width="1.4"/>
<line x1="454.7" y1="230.0" x2="454.7" y2="240.0" stroke="#0f172a" stroke-width="1.4"/>
<text x="156" y="239.0" text-anchor="end" font-size="12.5" font-weight="600" fill="#0f172a">Nemotron 3 Super</text>
<text x="464.7" y="239.0" font-size="11.5" fill="#0f172a">0.747 · $1.95</text>
<rect x="168" y="260.0" width="255.5" height="18" rx="4" fill="#f59e0b" opacity="0.88"/>
<line x1="384.4" y1="269.0" x2="465.9" y2="269.0" stroke="#0f172a" stroke-width="1.4"/>
<line x1="384.4" y1="264.0" x2="384.4" y2="274.0" stroke="#0f172a" stroke-width="1.4"/>
<line x1="465.9" y1="264.0" x2="465.9" y2="274.0" stroke="#0f172a" stroke-width="1.4"/>
<text x="156" y="273.0" text-anchor="end" font-size="12.5" font-weight="600" fill="#0f172a">Mistral Large 3</text>
<text x="475.9" y="273.0" font-size="11.5" fill="#0f172a">0.729 · $1.85</text>
<rect x="168" y="294.0" width="242.1" height="18" rx="4" fill="#f59e0b" opacity="0.88"/>
<line x1="348.7" y1="303.0" x2="452.5" y2="303.0" stroke="#0f172a" stroke-width="1.4"/>
<line x1="348.7" y1="298.0" x2="348.7" y2="308.0" stroke="#0f172a" stroke-width="1.4"/>
<line x1="452.5" y1="298.0" x2="452.5" y2="308.0" stroke="#0f172a" stroke-width="1.4"/>
<text x="156" y="307.0" text-anchor="end" font-size="12.5" font-weight="600" fill="#0f172a">Qwen 3.6</text>
<text x="462.5" y="307.0" font-size="11.5" fill="#0f172a">0.717 · $2.29</text>
<rect x="168" y="328.0" width="215.3" height="18" rx="4" fill="#ef4444" opacity="0.88"/>
<line x1="375.5" y1="337.0" x2="391.1" y2="337.0" stroke="#0f172a" stroke-width="1.4"/>
<line x1="375.5" y1="332.0" x2="375.5" y2="342.0" stroke="#0f172a" stroke-width="1.4"/>
<line x1="391.1" y1="332.0" x2="391.1" y2="342.0" stroke="#0f172a" stroke-width="1.4"/>
<text x="156" y="341.0" text-anchor="end" font-size="12.5" font-weight="600" fill="#0f172a">Gemma 4</text>
<text x="401.1" y="341.0" font-size="11.5" fill="#0f172a">0.693 · $0.76</text>
<rect x="168" y="362.0" width="128.3" height="18" rx="4" fill="#ef4444" opacity="0.88"/>
<line x1="288.5" y1="371.0" x2="303.0" y2="371.0" stroke="#0f172a" stroke-width="1.4"/>
<line x1="288.5" y1="366.0" x2="288.5" y2="376.0" stroke="#0f172a" stroke-width="1.4"/>
<line x1="303.0" y1="366.0" x2="303.0" y2="376.0" stroke="#0f172a" stroke-width="1.4"/>
<text x="156" y="375.0" text-anchor="end" font-size="12.5" font-weight="600" fill="#0f172a">DeepSeek V4 Pro</text>
<text x="313.0" y="375.0" font-size="11.5" fill="#0f172a">0.615 · $3.06</text>
<rect x="168" y="396.0" width="59.1" height="18" rx="4" fill="#ef4444" opacity="0.88"/>
<line x1="197.0" y1="405.0" x2="250.6" y2="405.0" stroke="#0f172a" stroke-width="1.4"/>
<line x1="197.0" y1="400.0" x2="197.0" y2="410.0" stroke="#0f172a" stroke-width="1.4"/>
<line x1="250.6" y1="400.0" x2="250.6" y2="410.0" stroke="#0f172a" stroke-width="1.4"/>
<text x="156" y="409.0" text-anchor="end" font-size="12.5" font-weight="600" fill="#0f172a">Llama 4 Maverick</text>
<text x="260.6" y="409.0" font-size="11.5" fill="#0f172a">0.553 · $0.82</text>
</svg>