<svg xmlns="http://www.w3.org/2000/svg" width="776" height="388" font-family="-apple-system,Segoe UI,Roboto,sans-serif"><rect width="776" height="388" fill="#ffffff"/><text x="24" y="34" font-size="20" font-weight="700" fill="#111827">Cross-cutting error classes</text><text x="24" y="54" font-size="12" fill="#6b7280">avg failures / run (100 tasks) · darker = more frequent</text><text x="125" y="82" font-size="11.5" fill="#374151" text-anchor="middle">Instruct</text><text x="191" y="82" font-size="11.5" fill="#374151" text-anchor="middle">Thinking</text><text x="257" y="82" font-size="11.5" fill="#374151" text-anchor="middle">gpt-oss</text><text x="323" y="82" font-size="11.5" fill="#374151" text-anchor="middle">GLM-Air</text><text x="389" y="82" font-size="11.5" fill="#374151" text-anchor="middle">Gemma</text><text x="455" y="82" font-size="11.5" fill="#374151" text-anchor="middle">Gemma31</text><text x="521" y="82" font-size="11.5" fill="#374151" text-anchor="middle">ds-flash</text><text x="587" y="82" font-size="11.5" fill="#374151" text-anchor="middle">ds-pro</text><text x="653" y="82" font-size="11.5" fill="#374151" text-anchor="middle">5.4-mini</text><text x="719" y="82" font-size="11.5" fill="#374151" text-anchor="middle">gpt-5.5</text><text x="82" y="115" font-size="12" fill="#374151" text-anchor="end">Completion</text><rect x="92" y="92" width="64" height="36" fill="rgb(193,54,54)" stroke="#ffffff"/><text x="124" y="115" font-size="11.5" fill="#ffffff" text-anchor="middle">13.3</text><rect x="158" y="92" width="64" height="36" fill="rgb(233,184,184)" stroke="#ffffff"/><text x="190" y="115" font-size="11.5" fill="#6b7280" text-anchor="middle">4.7</text><rect x="224" y="92" width="64" height="36" fill="rgb(185,28,28)" stroke="#ffffff"/><text x="256" y="115" font-size="11.5" fill="#ffffff" text-anchor="middle">30</text><rect x="290" y="92" width="64" height="36" fill="rgb(254,252,252)" stroke="#ffffff"/><text x="322" y="115" font-size="11.5" fill="#6b7280" text-anchor="middle">0.2</text><rect x="356" y="92" width="64" height="36" fill="rgb(238,199,199)" stroke="#ffffff"/><text x="388" y="115" font-size="11.5" fill="#6b7280" text-anchor="middle">3.7</text><rect x="422" y="92" width="64" height="36" fill="rgb(254,250,250)" stroke="#ffffff"/><text x="454" y="115" font-size="11.5" fill="#6b7280" text-anchor="middle">0.3</text><rect x="488" y="92" width="64" height="36" fill="rgb(229,172,172)" stroke="#ffffff"/><text x="520" y="115" font-size="11.5" fill="#6b7280" text-anchor="middle">5.5</text><rect x="554" y="92" width="64" height="36" fill="rgb(250,240,240)" stroke="#ffffff"/><text x="586" y="115" font-size="11.5" fill="#6b7280" text-anchor="middle">1</text><rect x="620" y="92" width="64" height="36" fill="rgb(215,126,126)" stroke="#ffffff"/><text x="652" y="115" font-size="11.5" fill="#ffffff" text-anchor="middle">8.5</text><rect x="686" y="92" width="64" height="36" fill="rgb(246,225,225)" stroke="#ffffff"/><text x="718" y="115" font-size="11.5" fill="#6b7280" text-anchor="middle">2</text><text x="82" y="153" font-size="12" fill="#374151" text-anchor="end">Citation</text><rect x="92" y="130" width="64" height="36" fill="rgb(190,43,43)" stroke="#ffffff"/><text x="124" y="153" font-size="11.5" fill="#ffffff" text-anchor="middle">14</text><rect x="158" y="130" width="64" height="36" fill="rgb(185,28,28)" stroke="#ffffff"/><text x="190" y="153" font-size="11.5" fill="#ffffff" text-anchor="middle">20</text><rect x="224" y="130" width="64" height="36" fill="rgb(213,119,119)" stroke="#ffffff"/><text x="256" y="153" font-size="11.5" fill="#ffffff" text-anchor="middle">9</text><rect x="290" y="130" width="64" height="36" fill="rgb(186,33,33)" stroke="#ffffff"/><text x="322" y="153" font-size="11.5" fill="#ffffff" text-anchor="middle">14.7</text><rect x="356" y="130" width="64" height="36" fill="rgb(185,28,28)" stroke="#ffffff"/><text x="388" y="153" font-size="11.5" fill="#ffffff" text-anchor="middle">19.3</text><rect x="422" y="130" width="64" height="36" fill="rgb(216,129,129)" stroke="#ffffff"/><text x="454" y="153" font-size="11.5" fill="#ffffff" text-anchor="middle">8.3</text><rect x="488" y="130" width="64" height="36" fill="rgb(206,96,96)" stroke="#ffffff"/><text x="520" y="153" font-size="11.5" fill="#ffffff" text-anchor="middle">10.5</text><rect x="554" y="130" width="64" height="36" fill="rgb(232,179,179)" stroke="#ffffff"/><text x="586" y="153" font-size="11.5" fill="#6b7280" text-anchor="middle">5</text><rect x="620" y="130" width="64" height="36" fill="rgb(231,178,178)" stroke="#ffffff"/><text x="652" y="153" font-size="11.5" fill="#6b7280" text-anchor="middle">5.1</text><rect x="686" y="130" width="64" height="36" fill="rgb(250,240,240)" stroke="#ffffff"/><text x="718" y="153" font-size="11.5" fill="#6b7280" text-anchor="middle">1</text><text x="82" y="191" font-size="12" fill="#374151" text-anchor="end">Security</text><rect x="92" y="168" width="64" height="36" fill="rgb(208,104,104)" stroke="#ffffff"/><text x="124" y="191" font-size="11.5" fill="#ffffff" text-anchor="middle">10</text><rect x="158" y="168" width="64" height="36" fill="rgb(224,154,154)" stroke="#ffffff"/><text x="190" y="191" font-size="11.5" fill="#6b7280" text-anchor="middle">6.7</text><rect x="224" y="168" width="64" height="36" fill="rgb(255,255,255)" stroke="#ffffff"/><text x="256" y="191" font-size="11.5" fill="#6b7280" text-anchor="middle">0</text><rect x="290" y="168" width="64" height="36" fill="rgb(233,182,182)" stroke="#ffffff"/><text x="322" y="191" font-size="11.5" fill="#6b7280" text-anchor="middle">4.8</text><rect x="356" y="168" width="64" height="36" fill="rgb(250,240,240)" stroke="#ffffff"/><text x="388" y="191" font-size="11.5" fill="#6b7280" text-anchor="middle">1</text><rect x="422" y="168" width="64" height="36" fill="rgb(247,229,229)" stroke="#ffffff"/><text x="454" y="191" font-size="11.5" fill="#6b7280" text-anchor="middle">1.7</text><rect x="488" y="168" width="64" height="36" fill="rgb(253,247,247)" stroke="#ffffff"/><text x="520" y="191" font-size="11.5" fill="#6b7280" text-anchor="middle">0.5</text><rect x="554" y="168" width="64" height="36" fill="rgb(255,255,255)" stroke="#ffffff"/><text x="586" y="191" font-size="11.5" fill="#6b7280" text-anchor="middle">0</text><rect x="620" y="168" width="64" height="36" fill="rgb(251,243,243)" stroke="#ffffff"/><text x="652" y="191" font-size="11.5" fill="#6b7280" text-anchor="middle">0.8</text><rect x="686" y="168" width="64" height="36" fill="rgb(255,255,255)" stroke="#ffffff"/><text x="718" y="191" font-size="11.5" fill="#6b7280" text-anchor="middle">0</text><text x="82" y="229" font-size="12" fill="#374151" text-anchor="end">Arithmetic</text><rect x="92" y="206" width="64" height="36" fill="rgb(227,164,164)" stroke="#ffffff"/><text x="124" y="229" font-size="11.5" fill="#6b7280" text-anchor="middle">6</text><rect x="158" y="206" width="64" height="36" fill="rgb(241,210,210)" stroke="#ffffff"/><text x="190" y="229" font-size="11.5" fill="#6b7280" text-anchor="middle">3</text><rect x="224" y="206" width="64" height="36" fill="rgb(255,255,255)" stroke="#ffffff"/><text x="256" y="229" font-size="11.5" fill="#6b7280" text-anchor="middle">0</text><rect x="290" y="206" width="64" height="36" fill="rgb(239,202,202)" stroke="#ffffff"/><text x="322" y="229" font-size="11.5" fill="#6b7280" text-anchor="middle">3.5</text><rect x="356" y="206" width="64" height="36" fill="rgb(247,229,229)" stroke="#ffffff"/><text x="388" y="229" font-size="11.5" fill="#6b7280" text-anchor="middle">1.7</text><rect x="422" y="206" width="64" height="36" fill="rgb(247,229,229)" stroke="#ffffff"/><text x="454" y="229" font-size="11.5" fill="#6b7280" text-anchor="middle">1.7</text><rect x="488" y="206" width="64" height="36" fill="rgb(250,240,240)" stroke="#ffffff"/><text x="520" y="229" font-size="11.5" fill="#6b7280" text-anchor="middle">1</text><rect x="554" y="206" width="64" height="36" fill="rgb(250,240,240)" stroke="#ffffff"/><text x="586" y="229" font-size="11.5" fill="#6b7280" text-anchor="middle">1</text><rect x="620" y="206" width="64" height="36" fill="rgb(186,33,33)" stroke="#ffffff"/><text x="652" y="229" font-size="11.5" fill="#ffffff" text-anchor="middle">14.7</text><rect x="686" y="206" width="64" height="36" fill="rgb(246,225,225)" stroke="#ffffff"/><text x="718" y="229" font-size="11.5" fill="#6b7280" text-anchor="middle">2</text><text x="82" y="267" font-size="12" fill="#374151" text-anchor="end">Outcome</text><rect x="92" y="244" width="64" height="36" fill="rgb(214,122,122)" stroke="#ffffff"/><text x="124" y="267" font-size="11.5" fill="#ffffff" text-anchor="middle">8.8</text><rect x="158" y="244" width="64" height="36" fill="rgb(227,164,164)" stroke="#ffffff"/><text x="190" y="267" font-size="11.5" fill="#6b7280" text-anchor="middle">6</text><rect x="224" y="244" width="64" height="36" fill="rgb(241,210,210)" stroke="#ffffff"/><text x="256" y="267" font-size="11.5" fill="#6b7280" text-anchor="middle">3</text><rect x="290" y="244" width="64" height="36" fill="rgb(244,220,220)" stroke="#ffffff"/><text x="322" y="267" font-size="11.5" fill="#6b7280" text-anchor="middle">2.3</text><rect x="356" y="244" width="64" height="36" fill="rgb(247,229,229)" stroke="#ffffff"/><text x="388" y="267" font-size="11.5" fill="#6b7280" text-anchor="middle">1.7</text><rect x="422" y="244" width="64" height="36" fill="rgb(250,240,240)" stroke="#ffffff"/><text x="454" y="267" font-size="11.5" fill="#6b7280" text-anchor="middle">1</text><rect x="488" y="244" width="64" height="36" fill="rgb(253,247,247)" stroke="#ffffff"/><text x="520" y="267" font-size="11.5" fill="#6b7280" text-anchor="middle">0.5</text><rect x="554" y="244" width="64" height="36" fill="rgb(250,240,240)" stroke="#ffffff"/><text x="586" y="267" font-size="11.5" fill="#6b7280" text-anchor="middle">1</text><rect x="620" y="244" width="64" height="36" fill="rgb(252,246,246)" stroke="#ffffff"/><text x="652" y="267" font-size="11.5" fill="#6b7280" text-anchor="middle">0.6</text><rect x="686" y="244" width="64" height="36" fill="rgb(246,225,225)" stroke="#ffffff"/><text x="718" y="267" font-size="11.5" fill="#6b7280" text-anchor="middle">2</text><text x="82" y="305" font-size="12" fill="#374151" text-anchor="end">Dispatch</text><rect x="92" y="282" width="64" height="36" fill="rgb(236,194,194)" stroke="#ffffff"/><text x="124" y="305" font-size="11.5" fill="#6b7280" text-anchor="middle">4</text><rect x="158" y="282" width="64" height="36" fill="rgb(233,184,184)" stroke="#ffffff"/><text x="190" y="305" font-size="11.5" fill="#6b7280" text-anchor="middle">4.7</text><rect x="224" y="282" width="64" height="36" fill="rgb(232,179,179)" stroke="#ffffff"/><text x="256" y="305" font-size="11.5" fill="#6b7280" text-anchor="middle">5</text><rect x="290" y="282" width="64" height="36" fill="rgb(232,179,179)" stroke="#ffffff"/><text x="322" y="305" font-size="11.5" fill="#6b7280" text-anchor="middle">5</text><rect x="356" y="282" width="64" height="36" fill="rgb(232,179,179)" stroke="#ffffff"/><text x="388" y="305" font-size="11.5" fill="#6b7280" text-anchor="middle">5</text><rect x="422" y="282" width="64" height="36" fill="rgb(232,179,179)" stroke="#ffffff"/><text x="454" y="305" font-size="11.5" fill="#6b7280" text-anchor="middle">5</text><rect x="488" y="282" width="64" height="36" fill="rgb(232,179,179)" stroke="#ffffff"/><text x="520" y="305" font-size="11.5" fill="#6b7280" text-anchor="middle">5</text><rect x="554" y="282" width="64" height="36" fill="rgb(232,179,179)" stroke="#ffffff"/><text x="586" y="305" font-size="11.5" fill="#6b7280" text-anchor="middle">5</text><rect x="620" y="282" width="64" height="36" fill="rgb(232,179,179)" stroke="#ffffff"/><text x="652" y="305" font-size="11.5" fill="#6b7280" text-anchor="middle">5</text><rect x="686" y="282" width="64" height="36" fill="rgb(232,179,179)" stroke="#ffffff"/><text x="718" y="305" font-size="11.5" fill="#6b7280" text-anchor="middle">5</text><text x="82" y="343" font-size="12" fill="#374151" text-anchor="end">Fraud</text><rect x="92" y="320" width="64" height="36" fill="rgb(241,210,210)" stroke="#ffffff"/><text x="124" y="343" font-size="11.5" fill="#6b7280" text-anchor="middle">3</text><rect x="158" y="320" width="64" height="36" fill="rgb(238,199,199)" stroke="#ffffff"/><text x="190" y="343" font-size="11.5" fill="#6b7280" text-anchor="middle">3.7</text><rect x="224" y="320" width="64" height="36" fill="rgb(241,210,210)" stroke="#ffffff"/><text x="256" y="343" font-size="11.5" fill="#6b7280" text-anchor="middle">3</text><rect x="290" y="320" width="64" height="36" fill="rgb(239,202,202)" stroke="#ffffff"/><text x="322" y="343" font-size="11.5" fill="#6b7280" text-anchor="middle">3.5</text><rect x="356" y="320" width="64" height="36" fill="rgb(238,199,199)" stroke="#ffffff"/><text x="388" y="343" font-size="11.5" fill="#6b7280" text-anchor="middle">3.7</text><rect x="422" y="320" width="64" height="36" fill="rgb(241,210,210)" stroke="#ffffff"/><text x="454" y="343" font-size="11.5" fill="#6b7280" text-anchor="middle">3</text><rect x="488" y="320" width="64" height="36" fill="rgb(239,202,202)" stroke="#ffffff"/><text x="520" y="343" font-size="11.5" fill="#6b7280" text-anchor="middle">3.5</text><rect x="554" y="320" width="64" height="36" fill="rgb(239,202,202)" stroke="#ffffff"/><text x="586" y="343" font-size="11.5" fill="#6b7280" text-anchor="middle">3.5</text><rect x="620" y="320" width="64" height="36" fill="rgb(239,204,204)" stroke="#ffffff"/><text x="652" y="343" font-size="11.5" fill="#6b7280" text-anchor="middle">3.4</text><rect x="686" y="320" width="64" height="36" fill="rgb(236,194,194)" stroke="#ffffff"/><text x="718" y="343" font-size="11.5" fill="#6b7280" text-anchor="middle">4</text></svg>