<svg xmlns="http://www.w3.org/2000/svg" width="799" height="388" font-family="-apple-system,Segoe UI,Roboto,sans-serif"><rect width="799" height="388" fill="#ffffff"/><text x="24" y="34" font-size="20" font-weight="700" fill="#111827">Cross-cutting error classes</text><text x="24" y="54" font-size="12" fill="#6b7280">avg failures / run (100 tasks) · darker = more frequent</text><text x="103.5" y="82" font-size="11.5" fill="#374151" text-anchor="middle">Instruct</text><text x="150.5" y="82" font-size="11.5" fill="#374151" text-anchor="middle">Thinking</text><text x="197.5" y="82" font-size="11.5" fill="#374151" text-anchor="middle">gpt-oss</text><text x="244.5" y="82" font-size="11.5" fill="#374151" text-anchor="middle">GLM-Air</text><text x="291.5" y="82" font-size="11.5" fill="#374151" text-anchor="middle">Gemma</text><text x="338.5" y="82" font-size="11.5" fill="#374151" text-anchor="middle">Gemma31</text><text x="385.5" y="82" font-size="11.5" fill="#374151" text-anchor="middle">Q36-27B</text><text x="432.5" y="82" font-size="11.5" fill="#374151" text-anchor="middle">Q36-35B</text><text x="479.5" y="82" font-size="11.5" fill="#374151" text-anchor="middle">ds-flash</text><text x="526.5" y="82" font-size="11.5" fill="#374151" text-anchor="middle">ds-pro</text><text x="573.5" y="82" font-size="11.5" fill="#374151" text-anchor="middle">5.4-mini</text><text x="620.5" y="82" font-size="11.5" fill="#374151" text-anchor="middle">gpt-5.5</text><text x="667.5" y="82" font-size="11.5" fill="#374151" text-anchor="middle">GLM-5.2</text><text x="714.5" y="82" font-size="11.5" fill="#374151" text-anchor="middle">Kimi</text><text x="761.5" y="82" font-size="11.5" fill="#374151" text-anchor="middle">Nemo</text><text x="70" y="115" font-size="12" fill="#374151" text-anchor="end">Completion</text><rect x="80" y="92" width="45" height="36" fill="rgb(193,54,54)" stroke="#ffffff"/><text x="102.5" y="115" font-size="11.5" fill="#ffffff" text-anchor="middle">13.3</text><rect x="127" y="92" width="45" height="36" fill="rgb(233,184,184)" stroke="#ffffff"/><text x="149.5" y="115" font-size="11.5" fill="#6b7280" text-anchor="middle">4.7</text><rect x="174" y="92" width="45" height="36" fill="rgb(185,28,28)" stroke="#ffffff"/><text x="196.5" y="115" font-size="11.5" fill="#ffffff" text-anchor="middle">30</text><rect x="221" y="92" width="45" height="36" fill="rgb(254,252,252)" stroke="#ffffff"/><text x="243.5" y="115" font-size="11.5" fill="#6b7280" text-anchor="middle">0.2</text><rect x="268" y="92" width="45" height="36" fill="rgb(238,199,199)" stroke="#ffffff"/><text x="290.5" y="115" font-size="11.5" fill="#6b7280" text-anchor="middle">3.7</text><rect x="315" y="92" width="45" height="36" fill="rgb(254,250,250)" stroke="#ffffff"/><text x="337.5" y="115" font-size="11.5" fill="#6b7280" text-anchor="middle">0.3</text><rect x="362" y="92" width="45" height="36" fill="rgb(252,244,244)" stroke="#ffffff"/><text x="384.5" y="115" font-size="11.5" fill="#6b7280" text-anchor="middle">0.7</text><rect x="409" y="92" width="45" height="36" fill="rgb(246,225,225)" stroke="#ffffff"/><text x="431.5" y="115" font-size="11.5" fill="#6b7280" text-anchor="middle">2</text><rect x="456" y="92" width="45" height="36" fill="rgb(229,172,172)" stroke="#ffffff"/><text x="478.5" y="115" font-size="11.5" fill="#6b7280" text-anchor="middle">5.5</text><rect x="503" y="92" width="45" height="36" fill="rgb(250,240,240)" stroke="#ffffff"/><text x="525.5" y="115" font-size="11.5" fill="#6b7280" text-anchor="middle">1</text><rect x="550" y="92" width="45" height="36" fill="rgb(215,126,126)" stroke="#ffffff"/><text x="572.5" y="115" font-size="11.5" fill="#ffffff" text-anchor="middle">8.5</text><rect x="597" y="92" width="45" height="36" fill="rgb(246,225,225)" stroke="#ffffff"/><text x="619.5" y="115" font-size="11.5" fill="#6b7280" text-anchor="middle">2</text><rect x="644" y="92" width="45" height="36" fill="rgb(248,232,232)" stroke="#ffffff"/><text x="666.5" y="115" font-size="11.5" fill="#6b7280" text-anchor="middle">1.5</text><rect x="691" y="92" width="45" height="36" fill="rgb(252,244,244)" stroke="#ffffff"/><text x="713.5" y="115" font-size="11.5" fill="#6b7280" text-anchor="middle">0.7</text><rect x="738" y="92" width="45" height="36" fill="rgb(251,243,243)" stroke="#ffffff"/><text x="760.5" y="115" font-size="11.5" fill="#6b7280" text-anchor="middle">0.8</text><text x="70" y="153" font-size="12" fill="#374151" text-anchor="end">Citation</text><rect x="80" y="130" width="45" height="36" fill="rgb(190,43,43)" stroke="#ffffff"/><text x="102.5" y="153" font-size="11.5" fill="#ffffff" text-anchor="middle">14</text><rect x="127" y="130" width="45" height="36" fill="rgb(185,28,28)" stroke="#ffffff"/><text x="149.5" y="153" font-size="11.5" fill="#ffffff" text-anchor="middle">20</text><rect x="174" y="130" width="45" height="36" fill="rgb(213,119,119)" stroke="#ffffff"/><text x="196.5" y="153" font-size="11.5" fill="#ffffff" text-anchor="middle">9</text><rect x="221" y="130" width="45" height="36" fill="rgb(186,33,33)" stroke="#ffffff"/><text x="243.5" y="153" font-size="11.5" fill="#ffffff" text-anchor="middle">14.7</text><rect x="268" y="130" width="45" height="36" fill="rgb(185,28,28)" stroke="#ffffff"/><text x="290.5" y="153" font-size="11.5" fill="#ffffff" text-anchor="middle">19.3</text><rect x="315" y="130" width="45" height="36" fill="rgb(216,129,129)" stroke="#ffffff"/><text x="337.5" y="153" font-size="11.5" fill="#ffffff" text-anchor="middle">8.3</text><rect x="362" y="130" width="45" height="36" fill="rgb(197,66,66)" stroke="#ffffff"/><text x="384.5" y="153" font-size="11.5" fill="#ffffff" text-anchor="middle">12.5</text><rect x="409" y="130" width="45" height="36" fill="rgb(185,28,28)" stroke="#ffffff"/><text x="431.5" y="153" font-size="11.5" fill="#ffffff" text-anchor="middle">16.3</text><rect x="456" y="130" width="45" height="36" fill="rgb(206,96,96)" stroke="#ffffff"/><text x="478.5" y="153" font-size="11.5" fill="#ffffff" text-anchor="middle">10.5</text><rect x="503" y="130" width="45" height="36" fill="rgb(232,179,179)" stroke="#ffffff"/><text x="525.5" y="153" font-size="11.5" fill="#6b7280" text-anchor="middle">5</text><rect x="550" y="130" width="45" height="36" fill="rgb(231,178,178)" stroke="#ffffff"/><text x="572.5" y="153" font-size="11.5" fill="#6b7280" text-anchor="middle">5.1</text><rect x="597" y="130" width="45" height="36" fill="rgb(250,240,240)" stroke="#ffffff"/><text x="619.5" y="153" font-size="11.5" fill="#6b7280" text-anchor="middle">1</text><rect x="644" y="130" width="45" height="36" fill="rgb(220,143,143)" stroke="#ffffff"/><text x="666.5" y="153" font-size="11.5" fill="#6b7280" text-anchor="middle">7.4</text><rect x="691" y="130" width="45" height="36" fill="rgb(224,154,154)" stroke="#ffffff"/><text x="713.5" y="153" font-size="11.5" fill="#6b7280" text-anchor="middle">6.7</text><rect x="738" y="130" width="45" height="36" fill="rgb(186,33,33)" stroke="#ffffff"/><text x="760.5" y="153" font-size="11.5" fill="#ffffff" text-anchor="middle">14.7</text><text x="70" y="191" font-size="12" fill="#374151" text-anchor="end">Security</text><rect x="80" y="168" width="45" height="36" fill="rgb(208,104,104)" stroke="#ffffff"/><text x="102.5" y="191" font-size="11.5" fill="#ffffff" text-anchor="middle">10</text><rect x="127" y="168" width="45" height="36" fill="rgb(224,154,154)" stroke="#ffffff"/><text x="149.5" y="191" font-size="11.5" fill="#6b7280" text-anchor="middle">6.7</text><rect x="174" y="168" width="45" height="36" fill="rgb(255,255,255)" stroke="#ffffff"/><text x="196.5" y="191" font-size="11.5" fill="#6b7280" text-anchor="middle">0</text><rect x="221" y="168" width="45" height="36" fill="rgb(233,182,182)" stroke="#ffffff"/><text x="243.5" y="191" font-size="11.5" fill="#6b7280" text-anchor="middle">4.8</text><rect x="268" y="168" width="45" height="36" fill="rgb(250,240,240)" stroke="#ffffff"/><text x="290.5" y="191" font-size="11.5" fill="#6b7280" text-anchor="middle">1</text><rect x="315" y="168" width="45" height="36" fill="rgb(247,229,229)" stroke="#ffffff"/><text x="337.5" y="191" font-size="11.5" fill="#6b7280" text-anchor="middle">1.7</text><rect x="362" y="168" width="45" height="36" fill="rgb(248,232,232)" stroke="#ffffff"/><text x="384.5" y="191" font-size="11.5" fill="#6b7280" text-anchor="middle">1.5</text><rect x="409" y="168" width="45" height="36" fill="rgb(251,243,243)" stroke="#ffffff"/><text x="431.5" y="191" font-size="11.5" fill="#6b7280" text-anchor="middle">0.8</text><rect x="456" y="168" width="45" height="36" fill="rgb(253,247,247)" stroke="#ffffff"/><text x="478.5" y="191" font-size="11.5" fill="#6b7280" text-anchor="middle">0.5</text><rect x="503" y="168" width="45" height="36" fill="rgb(255,255,255)" stroke="#ffffff"/><text x="525.5" y="191" font-size="11.5" fill="#6b7280" text-anchor="middle">0</text><rect x="550" y="168" width="45" height="36" fill="rgb(251,243,243)" stroke="#ffffff"/><text x="572.5" y="191" font-size="11.5" fill="#6b7280" text-anchor="middle">0.8</text><rect x="597" y="168" width="45" height="36" fill="rgb(255,255,255)" stroke="#ffffff"/><text x="619.5" y="191" font-size="11.5" fill="#6b7280" text-anchor="middle">0</text><rect x="644" y="168" width="45" height="36" fill="rgb(251,243,243)" stroke="#ffffff"/><text x="666.5" y="191" font-size="11.5" fill="#6b7280" text-anchor="middle">0.8</text><rect x="691" y="168" width="45" height="36" fill="rgb(254,250,250)" stroke="#ffffff"/><text x="713.5" y="191" font-size="11.5" fill="#6b7280" text-anchor="middle">0.3</text><rect x="738" y="168" width="45" height="36" fill="rgb(240,207,207)" stroke="#ffffff"/><text x="760.5" y="191" font-size="11.5" fill="#6b7280" text-anchor="middle">3.2</text><text x="70" y="229" font-size="12" fill="#374151" text-anchor="end">Arithmetic</text><rect x="80" y="206" width="45" height="36" fill="rgb(227,164,164)" stroke="#ffffff"/><text x="102.5" y="229" font-size="11.5" fill="#6b7280" text-anchor="middle">6</text><rect x="127" y="206" width="45" height="36" fill="rgb(241,210,210)" stroke="#ffffff"/><text x="149.5" y="229" font-size="11.5" fill="#6b7280" text-anchor="middle">3</text><rect x="174" y="206" width="45" height="36" fill="rgb(255,255,255)" stroke="#ffffff"/><text x="196.5" y="229" font-size="11.5" fill="#6b7280" text-anchor="middle">0</text><rect x="221" y="206" width="45" height="36" fill="rgb(239,202,202)" stroke="#ffffff"/><text x="243.5" y="229" font-size="11.5" fill="#6b7280" text-anchor="middle">3.5</text><rect x="268" y="206" width="45" height="36" fill="rgb(247,229,229)" stroke="#ffffff"/><text x="290.5" y="229" font-size="11.5" fill="#6b7280" text-anchor="middle">1.7</text><rect x="315" y="206" width="45" height="36" fill="rgb(247,229,229)" stroke="#ffffff"/><text x="337.5" y="229" font-size="11.5" fill="#6b7280" text-anchor="middle">1.7</text><rect x="362" y="206" width="45" height="36" fill="rgb(240,207,207)" stroke="#ffffff"/><text x="384.5" y="229" font-size="11.5" fill="#6b7280" text-anchor="middle">3.2</text><rect x="409" y="206" width="45" height="36" fill="rgb(243,217,217)" stroke="#ffffff"/><text x="431.5" y="229" font-size="11.5" fill="#6b7280" text-anchor="middle">2.5</text><rect x="456" y="206" width="45" height="36" fill="rgb(250,240,240)" stroke="#ffffff"/><text x="478.5" y="229" font-size="11.5" fill="#6b7280" text-anchor="middle">1</text><rect x="503" y="206" width="45" height="36" fill="rgb(250,240,240)" stroke="#ffffff"/><text x="525.5" y="229" font-size="11.5" fill="#6b7280" text-anchor="middle">1</text><rect x="550" y="206" width="45" height="36" fill="rgb(186,33,33)" stroke="#ffffff"/><text x="572.5" y="229" font-size="11.5" fill="#ffffff" text-anchor="middle">14.7</text><rect x="597" y="206" width="45" height="36" fill="rgb(246,225,225)" stroke="#ffffff"/><text x="619.5" y="229" font-size="11.5" fill="#6b7280" text-anchor="middle">2</text><rect x="644" y="206" width="45" height="36" fill="rgb(238,199,199)" stroke="#ffffff"/><text x="666.5" y="229" font-size="11.5" fill="#6b7280" text-anchor="middle">3.7</text><rect x="691" y="206" width="45" height="36" fill="rgb(246,226,226)" stroke="#ffffff"/><text x="713.5" y="229" font-size="11.5" fill="#6b7280" text-anchor="middle">1.9</text><rect x="738" y="206" width="45" height="36" fill="rgb(247,228,228)" stroke="#ffffff"/><text x="760.5" y="229" font-size="11.5" fill="#6b7280" text-anchor="middle">1.8</text><text x="70" y="267" font-size="12" fill="#374151" text-anchor="end">Outcome</text><rect x="80" y="244" width="45" height="36" fill="rgb(214,122,122)" stroke="#ffffff"/><text x="102.5" y="267" font-size="11.5" fill="#ffffff" text-anchor="middle">8.8</text><rect x="127" y="244" width="45" height="36" fill="rgb(227,164,164)" stroke="#ffffff"/><text x="149.5" y="267" font-size="11.5" fill="#6b7280" text-anchor="middle">6</text><rect x="174" y="244" width="45" height="36" fill="rgb(241,210,210)" stroke="#ffffff"/><text x="196.5" y="267" font-size="11.5" fill="#6b7280" text-anchor="middle">3</text><rect x="221" y="244" width="45" height="36" fill="rgb(244,220,220)" stroke="#ffffff"/><text x="243.5" y="267" font-size="11.5" fill="#6b7280" text-anchor="middle">2.3</text><rect x="268" y="244" width="45" height="36" fill="rgb(247,229,229)" stroke="#ffffff"/><text x="290.5" y="267" font-size="11.5" fill="#6b7280" text-anchor="middle">1.7</text><rect x="315" y="244" width="45" height="36" fill="rgb(250,240,240)" stroke="#ffffff"/><text x="337.5" y="267" font-size="11.5" fill="#6b7280" text-anchor="middle">1</text><rect x="362" y="244" width="45" height="36" fill="rgb(249,237,237)" stroke="#ffffff"/><text x="384.5" y="267" font-size="11.5" fill="#6b7280" text-anchor="middle">1.2</text><rect x="409" y="244" width="45" height="36" fill="rgb(247,228,228)" stroke="#ffffff"/><text x="431.5" y="267" font-size="11.5" fill="#6b7280" text-anchor="middle">1.8</text><rect x="456" y="244" width="45" height="36" fill="rgb(253,247,247)" stroke="#ffffff"/><text x="478.5" y="267" font-size="11.5" fill="#6b7280" text-anchor="middle">0.5</text><rect x="503" y="244" width="45" height="36" fill="rgb(250,240,240)" stroke="#ffffff"/><text x="525.5" y="267" font-size="11.5" fill="#6b7280" text-anchor="middle">1</text><rect x="550" y="244" width="45" height="36" fill="rgb(252,246,246)" stroke="#ffffff"/><text x="572.5" y="267" font-size="11.5" fill="#6b7280" text-anchor="middle">0.6</text><rect x="597" y="244" width="45" height="36" fill="rgb(246,225,225)" stroke="#ffffff"/><text x="619.5" y="267" font-size="11.5" fill="#6b7280" text-anchor="middle">2</text><rect x="644" y="244" width="45" height="36" fill="rgb(251,243,243)" stroke="#ffffff"/><text x="666.5" y="267" font-size="11.5" fill="#6b7280" text-anchor="middle">0.8</text><rect x="691" y="244" width="45" height="36" fill="rgb(252,246,246)" stroke="#ffffff"/><text x="713.5" y="267" font-size="11.5" fill="#6b7280" text-anchor="middle">0.6</text><rect x="738" y="244" width="45" height="36" fill="rgb(245,222,222)" stroke="#ffffff"/><text x="760.5" y="267" font-size="11.5" fill="#6b7280" text-anchor="middle">2.2</text><text x="70" y="305" font-size="12" fill="#374151" text-anchor="end">Dispatch</text><rect x="80" y="282" width="45" height="36" fill="rgb(236,194,194)" stroke="#ffffff"/><text x="102.5" y="305" font-size="11.5" fill="#6b7280" text-anchor="middle">4</text><rect x="127" y="282" width="45" height="36" fill="rgb(233,184,184)" stroke="#ffffff"/><text x="149.5" y="305" font-size="11.5" fill="#6b7280" text-anchor="middle">4.7</text><rect x="174" y="282" width="45" height="36" fill="rgb(232,179,179)" stroke="#ffffff"/><text x="196.5" y="305" font-size="11.5" fill="#6b7280" text-anchor="middle">5</text><rect x="221" y="282" width="45" height="36" fill="rgb(232,179,179)" stroke="#ffffff"/><text x="243.5" y="305" font-size="11.5" fill="#6b7280" text-anchor="middle">5</text><rect x="268" y="282" width="45" height="36" fill="rgb(232,179,179)" stroke="#ffffff"/><text x="290.5" y="305" font-size="11.5" fill="#6b7280" text-anchor="middle">5</text><rect x="315" y="282" width="45" height="36" fill="rgb(232,179,179)" stroke="#ffffff"/><text x="337.5" y="305" font-size="11.5" fill="#6b7280" text-anchor="middle">5</text><rect x="362" y="282" width="45" height="36" fill="rgb(232,179,179)" stroke="#ffffff"/><text x="384.5" y="305" font-size="11.5" fill="#6b7280" text-anchor="middle">5</text><rect x="409" y="282" width="45" height="36" fill="rgb(232,179,179)" stroke="#ffffff"/><text x="431.5" y="305" font-size="11.5" fill="#6b7280" text-anchor="middle">5</text><rect x="456" y="282" width="45" height="36" fill="rgb(232,179,179)" stroke="#ffffff"/><text x="478.5" y="305" font-size="11.5" fill="#6b7280" text-anchor="middle">5</text><rect x="503" y="282" width="45" height="36" fill="rgb(232,179,179)" stroke="#ffffff"/><text x="525.5" y="305" font-size="11.5" fill="#6b7280" text-anchor="middle">5</text><rect x="550" y="282" width="45" height="36" fill="rgb(232,179,179)" stroke="#ffffff"/><text x="572.5" y="305" font-size="11.5" fill="#6b7280" text-anchor="middle">5</text><rect x="597" y="282" width="45" height="36" fill="rgb(232,179,179)" stroke="#ffffff"/><text x="619.5" y="305" font-size="11.5" fill="#6b7280" text-anchor="middle">5</text><rect x="644" y="282" width="45" height="36" fill="rgb(232,179,179)" stroke="#ffffff"/><text x="666.5" y="305" font-size="11.5" fill="#6b7280" text-anchor="middle">5</text><rect x="691" y="282" width="45" height="36" fill="rgb(232,179,179)" stroke="#ffffff"/><text x="713.5" y="305" font-size="11.5" fill="#6b7280" text-anchor="middle">5</text><rect x="738" y="282" width="45" height="36" fill="rgb(234,187,187)" stroke="#ffffff"/><text x="760.5" y="305" font-size="11.5" fill="#6b7280" text-anchor="middle">4.5</text><text x="70" y="343" font-size="12" fill="#374151" text-anchor="end">Fraud</text><rect x="80" y="320" width="45" height="36" fill="rgb(241,210,210)" stroke="#ffffff"/><text x="102.5" y="343" font-size="11.5" fill="#6b7280" text-anchor="middle">3</text><rect x="127" y="320" width="45" height="36" fill="rgb(238,199,199)" stroke="#ffffff"/><text x="149.5" y="343" font-size="11.5" fill="#6b7280" text-anchor="middle">3.7</text><rect x="174" y="320" width="45" height="36" fill="rgb(241,210,210)" stroke="#ffffff"/><text x="196.5" y="343" font-size="11.5" fill="#6b7280" text-anchor="middle">3</text><rect x="221" y="320" width="45" height="36" fill="rgb(239,202,202)" stroke="#ffffff"/><text x="243.5" y="343" font-size="11.5" fill="#6b7280" text-anchor="middle">3.5</text><rect x="268" y="320" width="45" height="36" fill="rgb(238,199,199)" stroke="#ffffff"/><text x="290.5" y="343" font-size="11.5" fill="#6b7280" text-anchor="middle">3.7</text><rect x="315" y="320" width="45" height="36" fill="rgb(241,210,210)" stroke="#ffffff"/><text x="337.5" y="343" font-size="11.5" fill="#6b7280" text-anchor="middle">3</text><rect x="362" y="320" width="45" height="36" fill="rgb(237,197,197)" stroke="#ffffff"/><text x="384.5" y="343" font-size="11.5" fill="#6b7280" text-anchor="middle">3.8</text><rect x="409" y="320" width="45" height="36" fill="rgb(236,194,194)" stroke="#ffffff"/><text x="431.5" y="343" font-size="11.5" fill="#6b7280" text-anchor="middle">4</text><rect x="456" y="320" width="45" height="36" fill="rgb(239,202,202)" stroke="#ffffff"/><text x="478.5" y="343" font-size="11.5" fill="#6b7280" text-anchor="middle">3.5</text><rect x="503" y="320" width="45" height="36" fill="rgb(239,202,202)" stroke="#ffffff"/><text x="525.5" y="343" font-size="11.5" fill="#6b7280" text-anchor="middle">3.5</text><rect x="550" y="320" width="45" height="36" fill="rgb(239,204,204)" stroke="#ffffff"/><text x="572.5" y="343" font-size="11.5" fill="#6b7280" text-anchor="middle">3.4</text><rect x="597" y="320" width="45" height="36" fill="rgb(236,194,194)" stroke="#ffffff"/><text x="619.5" y="343" font-size="11.5" fill="#6b7280" text-anchor="middle">4</text><rect x="644" y="320" width="45" height="36" fill="rgb(239,202,202)" stroke="#ffffff"/><text x="666.5" y="343" font-size="11.5" fill="#6b7280" text-anchor="middle">3.5</text><rect x="691" y="320" width="45" height="36" fill="rgb(239,202,202)" stroke="#ffffff"/><text x="713.5" y="343" font-size="11.5" fill="#6b7280" text-anchor="middle">3.5</text><rect x="738" y="320" width="45" height="36" fill="rgb(237,197,197)" stroke="#ffffff"/><text x="760.5" y="343" font-size="11.5" fill="#6b7280" text-anchor="middle">3.8</text></svg>