<svg xmlns="http://www.w3.org/2000/svg" width="744" height="388" font-family="-apple-system,Segoe UI,Roboto,sans-serif"><rect width="744" height="388" fill="#ffffff"/><text x="24" y="34" font-size="20" font-weight="700" fill="#111827">Cross-cutting error classes</text><text x="24" y="54" font-size="12" fill="#6b7280">avg failures / run (100 tasks) · darker = more frequent</text><text x="135" y="82" font-size="11.5" fill="#374151" text-anchor="middle">Instruct</text><text x="213" y="82" font-size="11.5" fill="#374151" text-anchor="middle">Thinking</text><text x="291" y="82" font-size="11.5" fill="#374151" text-anchor="middle">gpt-oss</text><text x="369" y="82" font-size="11.5" fill="#374151" text-anchor="middle">GLM-Air</text><text x="447" y="82" font-size="11.5" fill="#374151" text-anchor="middle">ds-flash</text><text x="525" y="82" font-size="11.5" fill="#374151" text-anchor="middle">ds-pro</text><text x="603" y="82" font-size="11.5" fill="#374151" text-anchor="middle">5.4-mini</text><text x="681" y="82" font-size="11.5" fill="#374151" text-anchor="middle">gpt-5.5</text><text x="86" y="115" font-size="12" fill="#374151" text-anchor="end">Completion</text><rect x="96" y="92" width="76" height="36" fill="rgb(193,54,54)" stroke="#ffffff"/><text x="134" y="115" font-size="11.5" fill="#ffffff" text-anchor="middle">13.3</text><rect x="174" y="92" width="76" height="36" fill="rgb(233,184,184)" stroke="#ffffff"/><text x="212" y="115" font-size="11.5" fill="#6b7280" text-anchor="middle">4.7</text><rect x="252" y="92" width="76" height="36" fill="rgb(185,28,28)" stroke="#ffffff"/><text x="290" y="115" font-size="11.5" fill="#ffffff" text-anchor="middle">30</text><rect x="330" y="92" width="76" height="36" fill="rgb(254,252,252)" stroke="#ffffff"/><text x="368" y="115" font-size="11.5" fill="#6b7280" text-anchor="middle">0.2</text><rect x="408" y="92" width="76" height="36" fill="rgb(229,172,172)" stroke="#ffffff"/><text x="446" y="115" font-size="11.5" fill="#6b7280" text-anchor="middle">5.5</text><rect x="486" y="92" width="76" height="36" fill="rgb(250,240,240)" stroke="#ffffff"/><text x="524" y="115" font-size="11.5" fill="#6b7280" text-anchor="middle">1</text><rect x="564" y="92" width="76" height="36" fill="rgb(215,126,126)" stroke="#ffffff"/><text x="602" y="115" font-size="11.5" fill="#ffffff" text-anchor="middle">8.5</text><rect x="642" y="92" width="76" height="36" fill="rgb(246,225,225)" stroke="#ffffff"/><text x="680" y="115" font-size="11.5" fill="#6b7280" text-anchor="middle">2</text><text x="86" y="153" font-size="12" fill="#374151" text-anchor="end">Citation</text><rect x="96" y="130" width="76" height="36" fill="rgb(190,43,43)" stroke="#ffffff"/><text x="134" y="153" font-size="11.5" fill="#ffffff" text-anchor="middle">14</text><rect x="174" y="130" width="76" height="36" fill="rgb(185,28,28)" stroke="#ffffff"/><text x="212" y="153" font-size="11.5" fill="#ffffff" text-anchor="middle">20</text><rect x="252" y="130" width="76" height="36" fill="rgb(213,119,119)" stroke="#ffffff"/><text x="290" y="153" font-size="11.5" fill="#ffffff" text-anchor="middle">9</text><rect x="330" y="130" width="76" height="36" fill="rgb(186,33,33)" stroke="#ffffff"/><text x="368" y="153" font-size="11.5" fill="#ffffff" text-anchor="middle">14.7</text><rect x="408" y="130" width="76" height="36" fill="rgb(206,96,96)" stroke="#ffffff"/><text x="446" y="153" font-size="11.5" fill="#ffffff" text-anchor="middle">10.5</text><rect x="486" y="130" width="76" height="36" fill="rgb(232,179,179)" stroke="#ffffff"/><text x="524" y="153" font-size="11.5" fill="#6b7280" text-anchor="middle">5</text><rect x="564" y="130" width="76" height="36" fill="rgb(231,178,178)" stroke="#ffffff"/><text x="602" y="153" font-size="11.5" fill="#6b7280" text-anchor="middle">5.1</text><rect x="642" y="130" width="76" height="36" fill="rgb(250,240,240)" stroke="#ffffff"/><text x="680" y="153" font-size="11.5" fill="#6b7280" text-anchor="middle">1</text><text x="86" y="191" font-size="12" fill="#374151" text-anchor="end">Security</text><rect x="96" y="168" width="76" height="36" fill="rgb(208,104,104)" stroke="#ffffff"/><text x="134" y="191" font-size="11.5" fill="#ffffff" text-anchor="middle">10</text><rect x="174" y="168" width="76" height="36" fill="rgb(224,154,154)" stroke="#ffffff"/><text x="212" y="191" font-size="11.5" fill="#6b7280" text-anchor="middle">6.7</text><rect x="252" y="168" width="76" height="36" fill="rgb(255,255,255)" stroke="#ffffff"/><text x="290" y="191" font-size="11.5" fill="#6b7280" text-anchor="middle">0</text><rect x="330" y="168" width="76" height="36" fill="rgb(233,182,182)" stroke="#ffffff"/><text x="368" y="191" font-size="11.5" fill="#6b7280" text-anchor="middle">4.8</text><rect x="408" y="168" width="76" height="36" fill="rgb(253,247,247)" stroke="#ffffff"/><text x="446" y="191" font-size="11.5" fill="#6b7280" text-anchor="middle">0.5</text><rect x="486" y="168" width="76" height="36" fill="rgb(255,255,255)" stroke="#ffffff"/><text x="524" y="191" font-size="11.5" fill="#6b7280" text-anchor="middle">0</text><rect x="564" y="168" width="76" height="36" fill="rgb(251,243,243)" stroke="#ffffff"/><text x="602" y="191" font-size="11.5" fill="#6b7280" text-anchor="middle">0.8</text><rect x="642" y="168" width="76" height="36" fill="rgb(255,255,255)" stroke="#ffffff"/><text x="680" y="191" font-size="11.5" fill="#6b7280" text-anchor="middle">0</text><text x="86" y="229" font-size="12" fill="#374151" text-anchor="end">Arithmetic</text><rect x="96" y="206" width="76" height="36" fill="rgb(227,164,164)" stroke="#ffffff"/><text x="134" y="229" font-size="11.5" fill="#6b7280" text-anchor="middle">6</text><rect x="174" y="206" width="76" height="36" fill="rgb(241,210,210)" stroke="#ffffff"/><text x="212" y="229" font-size="11.5" fill="#6b7280" text-anchor="middle">3</text><rect x="252" y="206" width="76" height="36" fill="rgb(255,255,255)" stroke="#ffffff"/><text x="290" y="229" font-size="11.5" fill="#6b7280" text-anchor="middle">0</text><rect x="330" y="206" width="76" height="36" fill="rgb(239,202,202)" stroke="#ffffff"/><text x="368" y="229" font-size="11.5" fill="#6b7280" text-anchor="middle">3.5</text><rect x="408" y="206" width="76" height="36" fill="rgb(250,240,240)" stroke="#ffffff"/><text x="446" y="229" font-size="11.5" fill="#6b7280" text-anchor="middle">1</text><rect x="486" y="206" width="76" height="36" fill="rgb(250,240,240)" stroke="#ffffff"/><text x="524" y="229" font-size="11.5" fill="#6b7280" text-anchor="middle">1</text><rect x="564" y="206" width="76" height="36" fill="rgb(186,33,33)" stroke="#ffffff"/><text x="602" y="229" font-size="11.5" fill="#ffffff" text-anchor="middle">14.7</text><rect x="642" y="206" width="76" height="36" fill="rgb(246,225,225)" stroke="#ffffff"/><text x="680" y="229" font-size="11.5" fill="#6b7280" text-anchor="middle">2</text><text x="86" y="267" font-size="12" fill="#374151" text-anchor="end">Outcome</text><rect x="96" y="244" width="76" height="36" fill="rgb(214,122,122)" stroke="#ffffff"/><text x="134" y="267" font-size="11.5" fill="#ffffff" text-anchor="middle">8.8</text><rect x="174" y="244" width="76" height="36" fill="rgb(227,164,164)" stroke="#ffffff"/><text x="212" y="267" font-size="11.5" fill="#6b7280" text-anchor="middle">6</text><rect x="252" y="244" width="76" height="36" fill="rgb(241,210,210)" stroke="#ffffff"/><text x="290" y="267" font-size="11.5" fill="#6b7280" text-anchor="middle">3</text><rect x="330" y="244" width="76" height="36" fill="rgb(244,220,220)" stroke="#ffffff"/><text x="368" y="267" font-size="11.5" fill="#6b7280" text-anchor="middle">2.3</text><rect x="408" y="244" width="76" height="36" fill="rgb(253,247,247)" stroke="#ffffff"/><text x="446" y="267" font-size="11.5" fill="#6b7280" text-anchor="middle">0.5</text><rect x="486" y="244" width="76" height="36" fill="rgb(250,240,240)" stroke="#ffffff"/><text x="524" y="267" font-size="11.5" fill="#6b7280" text-anchor="middle">1</text><rect x="564" y="244" width="76" height="36" fill="rgb(252,246,246)" stroke="#ffffff"/><text x="602" y="267" font-size="11.5" fill="#6b7280" text-anchor="middle">0.6</text><rect x="642" y="244" width="76" height="36" fill="rgb(246,225,225)" stroke="#ffffff"/><text x="680" y="267" font-size="11.5" fill="#6b7280" text-anchor="middle">2</text><text x="86" y="305" font-size="12" fill="#374151" text-anchor="end">Dispatch</text><rect x="96" y="282" width="76" height="36" fill="rgb(236,194,194)" stroke="#ffffff"/><text x="134" y="305" font-size="11.5" fill="#6b7280" text-anchor="middle">4</text><rect x="174" y="282" width="76" height="36" fill="rgb(233,184,184)" stroke="#ffffff"/><text x="212" y="305" font-size="11.5" fill="#6b7280" text-anchor="middle">4.7</text><rect x="252" y="282" width="76" height="36" fill="rgb(232,179,179)" stroke="#ffffff"/><text x="290" y="305" font-size="11.5" fill="#6b7280" text-anchor="middle">5</text><rect x="330" y="282" width="76" height="36" fill="rgb(232,179,179)" stroke="#ffffff"/><text x="368" y="305" font-size="11.5" fill="#6b7280" text-anchor="middle">5</text><rect x="408" y="282" width="76" height="36" fill="rgb(232,179,179)" stroke="#ffffff"/><text x="446" y="305" font-size="11.5" fill="#6b7280" text-anchor="middle">5</text><rect x="486" y="282" width="76" height="36" fill="rgb(232,179,179)" stroke="#ffffff"/><text x="524" y="305" font-size="11.5" fill="#6b7280" text-anchor="middle">5</text><rect x="564" y="282" width="76" height="36" fill="rgb(232,179,179)" stroke="#ffffff"/><text x="602" y="305" font-size="11.5" fill="#6b7280" text-anchor="middle">5</text><rect x="642" y="282" width="76" height="36" fill="rgb(232,179,179)" stroke="#ffffff"/><text x="680" y="305" font-size="11.5" fill="#6b7280" text-anchor="middle">5</text><text x="86" y="343" font-size="12" fill="#374151" text-anchor="end">Fraud</text><rect x="96" y="320" width="76" height="36" fill="rgb(241,210,210)" stroke="#ffffff"/><text x="134" y="343" font-size="11.5" fill="#6b7280" text-anchor="middle">3</text><rect x="174" y="320" width="76" height="36" fill="rgb(238,199,199)" stroke="#ffffff"/><text x="212" y="343" font-size="11.5" fill="#6b7280" text-anchor="middle">3.7</text><rect x="252" y="320" width="76" height="36" fill="rgb(241,210,210)" stroke="#ffffff"/><text x="290" y="343" font-size="11.5" fill="#6b7280" text-anchor="middle">3</text><rect x="330" y="320" width="76" height="36" fill="rgb(239,202,202)" stroke="#ffffff"/><text x="368" y="343" font-size="11.5" fill="#6b7280" text-anchor="middle">3.5</text><rect x="408" y="320" width="76" height="36" fill="rgb(239,202,202)" stroke="#ffffff"/><text x="446" y="343" font-size="11.5" fill="#6b7280" text-anchor="middle">3.5</text><rect x="486" y="320" width="76" height="36" fill="rgb(239,202,202)" stroke="#ffffff"/><text x="524" y="343" font-size="11.5" fill="#6b7280" text-anchor="middle">3.5</text><rect x="564" y="320" width="76" height="36" fill="rgb(239,204,204)" stroke="#ffffff"/><text x="602" y="343" font-size="11.5" fill="#6b7280" text-anchor="middle">3.4</text><rect x="642" y="320" width="76" height="36" fill="rgb(236,194,194)" stroke="#ffffff"/><text x="680" y="343" font-size="11.5" fill="#6b7280" text-anchor="middle">4</text></svg>