<svg xmlns="http://www.w3.org/2000/svg" width="780" height="474" font-family="-apple-system,Segoe UI,Roboto,sans-serif"><rect width="780" height="474" fill="#ffffff"/><text x="24" y="34" font-size="20" font-weight="700" fill="#111827">ECOM1 / prod — score leaderboard (no-architecture solver)</text><text x="24" y="54" font-size="12" fill="#6b7280">avg score / 100 · <tspan fill="#6b7280">●</tspan> cloud baseline · <tspan fill="#0d9488">●</tspan> cloud open · <tspan fill="#ea580c">●</tspan> local open</text><line x1="188" y1="62" x2="188" y2="438" stroke="#e5e7eb"/><text x="188" y="458" font-size="11" fill="#9ca3af" text-anchor="middle">0</text><line x1="313" y1="62" x2="313" y2="438" stroke="#e5e7eb"/><text x="313" y="458" font-size="11" fill="#9ca3af" text-anchor="middle">25</text><line x1="438" y1="62" x2="438" y2="438" stroke="#e5e7eb"/><text x="438" y="458" font-size="11" fill="#9ca3af" text-anchor="middle">50</text><line x1="563" y1="62" x2="563" y2="438" stroke="#e5e7eb"/><text x="563" y="458" font-size="11" fill="#9ca3af" text-anchor="middle">75</text><line x1="688" y1="62" x2="688" y2="438" stroke="#e5e7eb"/><text x="688" y="458" font-size="11" fill="#9ca3af" text-anchor="middle">100</text><text x="176" y="96" font-size="13" fill="#374151" text-anchor="end">gpt-5.5</text><rect x="188" y="78" width="474" height="26" rx="3" fill="#6b7280"/><text x="670" y="96" font-size="13" font-weight="700" fill="#111827">94.8</text><text x="176" y="142" font-size="13" fill="#374151" text-anchor="end">deepseek-v4-pro</text><rect x="188" y="124" width="448" height="26" rx="3" fill="#0d9488"/><text x="644" y="142" font-size="13" font-weight="700" fill="#111827">89.6</text><text x="176" y="188" font-size="13" fill="#374151" text-anchor="end">deepseek-v4-flash</text><rect x="188" y="170" width="385.5" height="26" rx="3" fill="#0d9488"/><text x="581.5" y="188" font-size="13" font-weight="700" fill="#111827">77.1</text><text x="176" y="234" font-size="13" fill="#374151" text-anchor="end">gpt-5.4-mini</text><rect x="188" y="216" width="359" height="26" rx="3" fill="#6b7280"/><text x="555" y="234" font-size="13" font-weight="700" fill="#111827">71.8</text><text x="176" y="280" font-size="13" fill="#374151" text-anchor="end">GLM-4.5-Air</text><rect x="188" y="262" width="338.5" height="26" rx="3" fill="#ea580c"/><text x="534.5" y="280" font-size="13" font-weight="700" fill="#111827">67.7</text><text x="176" y="326" font-size="13" fill="#374151" text-anchor="end">gpt-oss-120b</text><rect x="188" y="308" width="264" height="26" rx="3" fill="#ea580c"/><text x="460" y="326" font-size="13" font-weight="700" fill="#111827">52.8</text><text x="176" y="372" font-size="13" fill="#374151" text-anchor="end">Qwen3-Thinking</text><rect x="188" y="354" width="257.5" height="26" rx="3" fill="#ea580c"/><text x="453.5" y="372" font-size="13" font-weight="700" fill="#111827">51.5</text><text x="176" y="418" font-size="13" fill="#374151" text-anchor="end">Qwen3-Instruct</text><rect x="188" y="400" width="203" height="26" rx="3" fill="#ea580c"/><text x="399" y="418" font-size="13" font-weight="700" fill="#111827">40.6</text></svg>