<svg xmlns="http://www.w3.org/2000/svg" width="780" height="520" font-family="-apple-system,Segoe UI,Roboto,sans-serif"><rect width="780" height="520" fill="#ffffff"/><text x="24" y="34" font-size="20" font-weight="700" fill="#111827">Quality vs cost per run</text><text x="24" y="54" font-size="12" fill="#6b7280">y = score · x = $/100-task run (log) · point size = completion% · local models are free</text><line x1="70" y1="450" x2="750" y2="450" stroke="#eef2f7"/><text x="60" y="454" font-size="11" fill="#9ca3af" text-anchor="end">0</text><line x1="70" y1="374" x2="750" y2="374" stroke="#eef2f7"/><text x="60" y="378" font-size="11" fill="#9ca3af" text-anchor="end">20</text><line x1="70" y1="298" x2="750" y2="298" stroke="#eef2f7"/><text x="60" y="302" font-size="11" fill="#9ca3af" text-anchor="end">40</text><line x1="70" y1="222" x2="750" y2="222" stroke="#eef2f7"/><text x="60" y="226" font-size="11" fill="#9ca3af" text-anchor="end">60</text><line x1="70" y1="146" x2="750" y2="146" stroke="#eef2f7"/><text x="60" y="150" font-size="11" fill="#9ca3af" text-anchor="end">80</text><line x1="70" y1="70" x2="750" y2="70" stroke="#eef2f7"/><text x="60" y="74" font-size="11" fill="#9ca3af" text-anchor="end">100</text><rect x="70" y="70" width="132" height="380" fill="#fff7ed"/><line x1="202" y1="70" x2="202" y2="450" stroke="#fdba74" stroke-dasharray="4 3"/><text x="136" y="470" font-size="11" fill="#c2410c" text-anchor="middle">$0 · local</text><line x1="202" y1="70" x2="202" y2="450" stroke="#eef2f7"/><text x="202" y="470" font-size="11" fill="#9ca3af" text-anchor="middle">$0.1</text><line x1="368.46265502749793" y1="70" x2="368.46265502749793" y2="450" stroke="#eef2f7"/><text x="368.46265502749793" y="470" font-size="11" fill="#9ca3af" text-anchor="middle">$0.5</text><line x1="440.15421834249935" y1="70" x2="440.15421834249935" y2="450" stroke="#eef2f7"/><text x="440.15421834249935" y="470" font-size="11" fill="#9ca3af" text-anchor="middle">$1</text><line x1="606.6168733699972" y1="70" x2="606.6168733699972" y2="450" stroke="#eef2f7"/><text x="606.6168733699972" y="470" font-size="11" fill="#9ca3af" text-anchor="middle">$5</text><line x1="678.3084366849987" y1="70" x2="678.3084366849987" y2="450" stroke="#eef2f7"/><text x="678.3084366849987" y="470" font-size="11" fill="#9ca3af" text-anchor="middle">$10</text><line x1="750" y1="70" x2="750" y2="450" stroke="#eef2f7"/><text x="750" y="470" font-size="11" fill="#9ca3af" text-anchor="middle">$20</text><circle cx="678.7213277038566" cy="89.76000000000002" r="11.6" fill="#6b7280" fill-opacity="0.82" stroke="#ffffff" stroke-width="1.5"/><text x="661.1213277038565" y="93.76000000000002" font-size="12" fill="#374151" text-anchor="end">gpt-5.5</text><circle cx="359.838573354495" cy="109.52000000000004" r="11.8" fill="#0d9488" fill-opacity="0.82" stroke="#ffffff" stroke-width="1.5"/><text x="377.638573354495" y="113.52000000000004" font-size="12" fill="#374151" text-anchor="start">deepseek-v4-pro</text><circle cx="88" cy="133.46" r="12" fill="#ea580c" fill-opacity="0.82" stroke="#ffffff" stroke-width="1.5"/><text x="106" y="137.46" font-size="12" fill="#374151" text-anchor="start">Gemma-4-31B (think)</text><circle cx="256.8823827387149" cy="157.02000000000004" r="11" fill="#0d9488" fill-opacity="0.82" stroke="#ffffff" stroke-width="1.5"/><text x="273.8823827387149" y="161.02000000000004" font-size="12" fill="#374151" text-anchor="start">deepseek-v4-flash</text><circle cx="573.782879776335" cy="177.16000000000003" r="10.399999999999999" fill="#6b7280" fill-opacity="0.82" stroke="#ffffff" stroke-width="1.5"/><text x="590.182879776335" y="181.16000000000003" font-size="12" fill="#374151" text-anchor="start">gpt-5.4-mini</text><circle cx="106" cy="192.73999999999998" r="12" fill="#ea580c" fill-opacity="0.82" stroke="#ffffff" stroke-width="1.5"/><text x="124" y="174.73999999999998" font-size="12" fill="#374151" text-anchor="start">GLM-4.5-Air</text><circle cx="124" cy="195.39999999999998" r="11.2" fill="#ea580c" fill-opacity="0.82" stroke="#ffffff" stroke-width="1.5"/><text x="141.2" y="220.59999999999997" font-size="12" fill="#374151" text-anchor="start">Gemma-4-A4B (think)</text><circle cx="142" cy="249.35999999999999" r="6" fill="#ea580c" fill-opacity="0.82" stroke="#ffffff" stroke-width="1.5"/><text x="154" y="237.35999999999999" font-size="12" fill="#374151" text-anchor="start">gpt-oss-120b</text><circle cx="160" cy="254.29999999999998" r="11" fill="#ea580c" fill-opacity="0.82" stroke="#ffffff" stroke-width="1.5"/><text x="177" y="279.29999999999995" font-size="12" fill="#374151" text-anchor="start">Qwen3-Thinking</text><circle cx="178" cy="295.72" r="9.4" fill="#ea580c" fill-opacity="0.82" stroke="#ffffff" stroke-width="1.5"/><text x="193.4" y="299.72" font-size="12" fill="#374151" text-anchor="start">Qwen3-Instruct</text></svg>