<svg xmlns="http://www.w3.org/2000/svg" width="780" height="520" font-family="-apple-system,Segoe UI,Roboto,sans-serif"><rect width="780" height="520" fill="#ffffff"/><text x="24" y="34" font-size="20" font-weight="700" fill="#111827">Quality vs cost per run</text><text x="24" y="54" font-size="12" fill="#6b7280">y = score · x = $/100-task run (log) · point size = completion% · local models are free</text><line x1="70" y1="450" x2="750" y2="450" stroke="#eef2f7"/><text x="60" y="454" font-size="11" fill="#9ca3af" text-anchor="end">0</text><line x1="70" y1="374" x2="750" y2="374" stroke="#eef2f7"/><text x="60" y="378" font-size="11" fill="#9ca3af" text-anchor="end">20</text><line x1="70" y1="298" x2="750" y2="298" stroke="#eef2f7"/><text x="60" y="302" font-size="11" fill="#9ca3af" text-anchor="end">40</text><line x1="70" y1="222" x2="750" y2="222" stroke="#eef2f7"/><text x="60" y="226" font-size="11" fill="#9ca3af" text-anchor="end">60</text><line x1="70" y1="146" x2="750" y2="146" stroke="#eef2f7"/><text x="60" y="150" font-size="11" fill="#9ca3af" text-anchor="end">80</text><line x1="70" y1="70" x2="750" y2="70" stroke="#eef2f7"/><text x="60" y="74" font-size="11" fill="#9ca3af" text-anchor="end">100</text><rect x="70" y="70" width="112" height="380" fill="#fff7ed"/><line x1="182" y1="70" x2="182" y2="450" stroke="#fdba74" stroke-dasharray="4 3"/><text x="126" y="470" font-size="11" fill="#c2410c" text-anchor="middle">$0 · local</text><line x1="182" y1="70" x2="182" y2="450" stroke="#eef2f7"/><text x="182" y="470" font-size="11" fill="#9ca3af" text-anchor="middle">$0.1</text><line x1="354.5379344080635" y1="70" x2="354.5379344080635" y2="450" stroke="#eef2f7"/><text x="354.5379344080635" y="470" font-size="11" fill="#9ca3af" text-anchor="middle">$0.5</text><line x1="428.8459781360212" y1="70" x2="428.8459781360212" y2="450" stroke="#eef2f7"/><text x="428.8459781360212" y="470" font-size="11" fill="#9ca3af" text-anchor="middle">$1</text><line x1="601.3839125440848" y1="70" x2="601.3839125440848" y2="450" stroke="#eef2f7"/><text x="601.3839125440848" y="470" font-size="11" fill="#9ca3af" text-anchor="middle">$5</text><line x1="675.6919562720424" y1="70" x2="675.6919562720424" y2="450" stroke="#eef2f7"/><text x="675.6919562720424" y="470" font-size="11" fill="#9ca3af" text-anchor="middle">$10</text><line x1="750" y1="70" x2="750" y2="450" stroke="#eef2f7"/><text x="750" y="470" font-size="11" fill="#9ca3af" text-anchor="middle">$20</text><circle cx="676.119916306187" cy="89.76000000000002" r="11.6" fill="#6b7280" fill-opacity="0.82" stroke="#ffffff" stroke-width="1.5"/><text x="658.5199163061869" y="93.76000000000002" font-size="12" fill="#374151" text-anchor="end">gpt-5.5</text><circle cx="345.5991052287466" cy="109.52000000000004" r="11.8" fill="#0d9488" fill-opacity="0.82" stroke="#ffffff" stroke-width="1.5"/><text x="363.39910522874663" y="113.52000000000004" font-size="12" fill="#374151" text-anchor="start">deepseek-v4-pro</text><circle cx="238.88538940801106" cy="157.02000000000004" r="11" fill="#0d9488" fill-opacity="0.82" stroke="#ffffff" stroke-width="1.5"/><text x="255.88538940801106" y="161.02000000000004" font-size="12" fill="#374151" text-anchor="start">deepseek-v4-flash</text><circle cx="567.3515980163472" cy="177.16000000000003" r="10.399999999999999" fill="#6b7280" fill-opacity="0.82" stroke="#ffffff" stroke-width="1.5"/><text x="583.7515980163472" y="181.16000000000003" font-size="12" fill="#374151" text-anchor="start">gpt-5.4-mini</text><circle cx="94" cy="192.73999999999998" r="12" fill="#ea580c" fill-opacity="0.82" stroke="#ffffff" stroke-width="1.5"/><text x="112" y="196.73999999999998" font-size="12" fill="#374151" text-anchor="start">GLM-4.5-Air</text><circle cx="116" cy="249.35999999999999" r="6" fill="#ea580c" fill-opacity="0.82" stroke="#ffffff" stroke-width="1.5"/><text x="128" y="237.35999999999999" font-size="12" fill="#374151" text-anchor="start">gpt-oss-120b</text><circle cx="138" cy="254.29999999999998" r="11" fill="#ea580c" fill-opacity="0.82" stroke="#ffffff" stroke-width="1.5"/><text x="155" y="279.29999999999995" font-size="12" fill="#374151" text-anchor="start">Qwen3-Thinking</text><circle cx="160" cy="295.72" r="9.4" fill="#ea580c" fill-opacity="0.82" stroke="#ffffff" stroke-width="1.5"/><text x="175.4" y="299.72" font-size="12" fill="#374151" text-anchor="start">Qwen3-Instruct</text></svg>